<mxfile host="65bd71144e">
    <diagram id="settings-page-layout" name="SettingsPage">
        <mxGraphModel dx="1254" dy="1169" grid="1" gridSize="10" guides="1" tooltips="1" connect="1" arrows="1" fold="1" page="1" pageScale="1" pageWidth="1200" pageHeight="800" background="#1a1a2e" math="0" shadow="0">
            <root>
                <mxCell id="0"/>
                <mxCell id="1" parent="0"/>
                <!-- 背景コンテナ -->
                <mxCell id="bg-container" value="" style="rounded=0;whiteSpace=wrap;html=1;fillColor=#0f0f1e;strokeColor=#2d2d44;" parent="1" vertex="1">
                    <mxGeometry x="0" y="0" width="1200" height="800" as="geometry"/>
                </mxCell>
                <!-- 背景装飾（設定アイコン） -->
                <mxCell id="gear-decor-1" value="⚙️" style="text;html=1;strokeColor=none;fillColor=none;align=center;verticalAlign=middle;whiteSpace=wrap;rounded=0;fontSize=64;opacity=10;" parent="1" vertex="1">
                    <mxGeometry x="950" y="500" width="100" height="100" as="geometry"/>
                </mxCell>
                <mxCell id="gear-decor-2" value="⚙️" style="text;html=1;strokeColor=none;fillColor=none;align=center;verticalAlign=middle;whiteSpace=wrap;rounded=0;fontSize=32;opacity=10;" parent="1" vertex="1">
                    <mxGeometry x="150" y="600" width="50" height="50" as="geometry"/>
                </mxCell>
                <!-- ヘッダー -->
                <mxCell id="header-container" value="" style="rounded=0;whiteSpace=wrap;html=1;fillColor=#1e1e30;strokeColor=#2d2d44;" parent="1" vertex="1">
                    <mxGeometry x="0" y="0" width="1200" height="80" as="geometry"/>
                </mxCell>
                <mxCell id="header-title" value="設定" style="text;html=1;strokeColor=none;fillColor=none;align=center;verticalAlign=middle;whiteSpace=wrap;rounded=0;fontSize=32;fontColor=#ffffff;fontStyle=1;" parent="1" vertex="1">
                    <mxGeometry x="500" y="20" width="200" height="40" as="geometry"/>
                </mxCell>
                <!-- 戻るボタン -->
                <mxCell id="back-btn" value="← 戻る" style="rounded=1;whiteSpace=wrap;html=1;fillColor=#3d3d55;strokeColor=#2d2d44;fontSize=16;fontColor=#ffffff;arcSize=50;" parent="1" vertex="1">
                    <mxGeometry x="30" y="20" width="100" height="40" as="geometry"/>
                </mxCell>
                <!-- メインコンテナ -->
                <mxCell id="main-container" value="" style="rounded=1;whiteSpace=wrap;html=1;fillColor=#1e1e30;strokeColor=#2d2d44;" parent="1" vertex="1">
                    <mxGeometry x="150" y="120" width="900" height="600" as="geometry"/>
                </mxCell>
                <!-- 音響設定セクション -->
                <mxCell id="sound-section" value="" style="rounded=1;whiteSpace=wrap;html=1;fillColor=#2a2a3e;strokeColor=#3d3d55;" parent="1" vertex="1">
                    <mxGeometry x="200" y="150" width="800" height="200" as="geometry"/>
                </mxCell>
                <mxCell id="sound-title" value="🔊 音響設定" style="text;html=1;strokeColor=none;fillColor=none;align=left;verticalAlign=middle;whiteSpace=wrap;rounded=0;fontSize=20;fontColor=#87ceeb;fontStyle=1;" parent="1" vertex="1">
                    <mxGeometry x="220" y="160" width="200" height="30" as="geometry"/>
                </mxCell>
                <!-- マスター音量 -->
                <mxCell id="master-label" value="マスター音量" style="text;html=1;strokeColor=none;fillColor=none;align=left;verticalAlign=middle;whiteSpace=wrap;rounded=0;fontSize=14;fontColor=#cccccc;" parent="1" vertex="1">
                    <mxGeometry x="240" y="200" width="100" height="25" as="geometry"/>
                </mxCell>
                <mxCell id="master-slider-bg" value="" style="rounded=1;whiteSpace=wrap;html=1;fillColor=#3d3d55;strokeColor=#4d4d66;" parent="1" vertex="1">
                    <mxGeometry x="350" y="205" width="300" height="15" as="geometry"/>
                </mxCell>
                <mxCell id="master-slider-fill" value="" style="rounded=1;whiteSpace=wrap;html=1;fillColor=#3498db;strokeColor=none;" parent="1" vertex="1">
                    <mxGeometry x="350" y="205" width="210" height="15" as="geometry"/>
                </mxCell>
                <mxCell id="master-slider-handle" value="" style="ellipse;whiteSpace=wrap;html=1;fillColor=#5aa3d9;strokeColor=#4d8fc9;" parent="1" vertex="1">
                    <mxGeometry x="550" y="200" width="25" height="25" as="geometry"/>
                </mxCell>
                <mxCell id="master-value" value="70%" style="text;html=1;strokeColor=none;fillColor=none;align=center;verticalAlign=middle;whiteSpace=wrap;rounded=0;fontSize=14;fontColor=#87ceeb;" parent="1" vertex="1">
                    <mxGeometry x="670" y="200" width="50" height="25" as="geometry"/>
                </mxCell>
                <!-- 効果音音量 -->
                <mxCell id="sfx-label" value="効果音音量" style="text;html=1;strokeColor=none;fillColor=none;align=left;verticalAlign=middle;whiteSpace=wrap;rounded=0;fontSize=14;fontColor=#cccccc;" parent="1" vertex="1">
                    <mxGeometry x="240" y="235" width="100" height="25" as="geometry"/>
                </mxCell>
                <mxCell id="sfx-slider-bg" value="" style="rounded=1;whiteSpace=wrap;html=1;fillColor=#3d3d55;strokeColor=#4d4d66;" parent="1" vertex="1">
                    <mxGeometry x="350" y="240" width="300" height="15" as="geometry"/>
                </mxCell>
                <mxCell id="sfx-slider-fill" value="" style="rounded=1;whiteSpace=wrap;html=1;fillColor=#3498db;strokeColor=none;" parent="1" vertex="1">
                    <mxGeometry x="350" y="240" width="240" height="15" as="geometry"/>
                </mxCell>
                <mxCell id="sfx-slider-handle" value="" style="ellipse;whiteSpace=wrap;html=1;fillColor=#5aa3d9;strokeColor=#4d8fc9;" parent="1" vertex="1">
                    <mxGeometry x="580" y="235" width="25" height="25" as="geometry"/>
                </mxCell>
                <mxCell id="sfx-value" value="80%" style="text;html=1;strokeColor=none;fillColor=none;align=center;verticalAlign=middle;whiteSpace=wrap;rounded=0;fontSize=14;fontColor=#87ceeb;" parent="1" vertex="1">
                    <mxGeometry x="670" y="235" width="50" height="25" as="geometry"/>
                </mxCell>
                <!-- BGM音量 -->
                <mxCell id="bgm-label" value="BGM音量" style="text;html=1;strokeColor=none;fillColor=none;align=left;verticalAlign=middle;whiteSpace=wrap;rounded=0;fontSize=14;fontColor=#cccccc;" parent="1" vertex="1">
                    <mxGeometry x="240" y="270" width="100" height="25" as="geometry"/>
                </mxCell>
                <mxCell id="bgm-slider-bg" value="" style="rounded=1;whiteSpace=wrap;html=1;fillColor=#3d3d55;strokeColor=#4d4d66;" parent="1" vertex="1">
                    <mxGeometry x="350" y="275" width="300" height="15" as="geometry"/>
                </mxCell>
                <mxCell id="bgm-slider-fill" value="" style="rounded=1;whiteSpace=wrap;html=1;fillColor=#3498db;strokeColor=none;" parent="1" vertex="1">
                    <mxGeometry x="350" y="275" width="150" height="15" as="geometry"/>
                </mxCell>
                <mxCell id="bgm-slider-handle" value="" style="ellipse;whiteSpace=wrap;html=1;fillColor=#5aa3d9;strokeColor=#4d8fc9;" parent="1" vertex="1">
                    <mxGeometry x="490" y="270" width="25" height="25" as="geometry"/>
                </mxCell>
                <mxCell id="bgm-value" value="50%" style="text;html=1;strokeColor=none;fillColor=none;align=center;verticalAlign=middle;whiteSpace=wrap;rounded=0;fontSize=14;fontColor=#87ceeb;" parent="1" vertex="1">
                    <mxGeometry x="670" y="270" width="50" height="25" as="geometry"/>
                </mxCell>
                <!-- ミュート設定 -->
                <mxCell id="mute-label" value="ミュート" style="text;html=1;strokeColor=none;fillColor=none;align=left;verticalAlign=middle;whiteSpace=wrap;rounded=0;fontSize=14;fontColor=#cccccc;" parent="1" vertex="1">
                    <mxGeometry x="240" y="305" width="100" height="25" as="geometry"/>
                </mxCell>
                <mxCell id="mute-toggle-bg" value="" style="rounded=1;whiteSpace=wrap;html=1;fillColor=#3d3d55;strokeColor=#4d4d66;arcSize=50;" parent="1" vertex="1">
                    <mxGeometry x="350" y="308" width="60" height="30" as="geometry"/>
                </mxCell>
                <mxCell id="mute-toggle-handle" value="" style="ellipse;whiteSpace=wrap;html=1;fillColor=#ffffff;strokeColor=#cccccc;" parent="1" vertex="1">
                    <mxGeometry x="354" y="311" width="24" height="24" as="geometry"/>
                </mxCell>
                <mxCell id="mute-status" value="OFF" style="text;html=1;strokeColor=none;fillColor=none;align=left;verticalAlign=middle;whiteSpace=wrap;rounded=0;fontSize=14;fontColor=#888888;" parent="1" vertex="1">
                    <mxGeometry x="420" y="305" width="50" height="25" as="geometry"/>
                </mxCell>
                <!-- 言語設定セクション -->
                <mxCell id="language-section" value="" style="rounded=1;whiteSpace=wrap;html=1;fillColor=#2a2a3e;strokeColor=#3d3d55;" parent="1" vertex="1">
                    <mxGeometry x="200" y="370" width="380" height="100" as="geometry"/>
                </mxCell>
                <mxCell id="language-title" value="🌐 言語設定" style="text;html=1;strokeColor=none;fillColor=none;align=left;verticalAlign=middle;whiteSpace=wrap;rounded=0;fontSize=20;fontColor=#87ceeb;fontStyle=1;" parent="1" vertex="1">
                    <mxGeometry x="220" y="380" width="200" height="30" as="geometry"/>
                </mxCell>
                <mxCell id="language-label" value="表示言語" style="text;html=1;strokeColor=none;fillColor=none;align=left;verticalAlign=middle;whiteSpace=wrap;rounded=0;fontSize=14;fontColor=#cccccc;" parent="1" vertex="1">
                    <mxGeometry x="240" y="420" width="100" height="25" as="geometry"/>
                </mxCell>
                <mxCell id="language-dropdown" value="日本語 ▼" style="rounded=1;whiteSpace=wrap;html=1;fillColor=#3d3d55;strokeColor=#4d4d66;fontSize=14;fontColor=#ffffff;" parent="1" vertex="1">
                    <mxGeometry x="350" y="420" width="150" height="30" as="geometry"/>
                </mxCell>
                <!-- 品質設定セクション -->
                <mxCell id="quality-section" value="" style="rounded=1;whiteSpace=wrap;html=1;fillColor=#2a2a3e;strokeColor=#3d3d55;" parent="1" vertex="1">
                    <mxGeometry x="620" y="370" width="380" height="100" as="geometry"/>
                </mxCell>
                <mxCell id="quality-title" value="⚡ 品質設定" style="text;html=1;strokeColor=none;fillColor=none;align=left;verticalAlign=middle;whiteSpace=wrap;rounded=0;fontSize=20;fontColor=#87ceeb;fontStyle=1;" parent="1" vertex="1">
                    <mxGeometry x="640" y="380" width="200" height="30" as="geometry"/>
                </mxCell>
                <mxCell id="quality-label" value="品質レベル" style="text;html=1;strokeColor=none;fillColor=none;align=left;verticalAlign=middle;whiteSpace=wrap;rounded=0;fontSize=14;fontColor=#cccccc;" parent="1" vertex="1">
                    <mxGeometry x="660" y="420" width="100" height="25" as="geometry"/>
                </mxCell>
                <!-- 品質レベル選択ボタン -->
                <mxCell id="quality-auto" value="自動" style="rounded=1;whiteSpace=wrap;html=1;fillColor=#3498db;strokeColor=#2980b9;fontSize=12;fontColor=#ffffff;" parent="1" vertex="1">
                    <mxGeometry x="770" y="420" width="40" height="30" as="geometry"/>
                </mxCell>
                <mxCell id="quality-low" value="低" style="rounded=1;whiteSpace=wrap;html=1;fillColor=#3d3d55;strokeColor=#4d4d66;fontSize=12;fontColor=#cccccc;" parent="1" vertex="1">
                    <mxGeometry x="815" y="420" width="40" height="30" as="geometry"/>
                </mxCell>
                <mxCell id="quality-mid" value="中" style="rounded=1;whiteSpace=wrap;html=1;fillColor=#3d3d55;strokeColor=#4d4d66;fontSize=12;fontColor=#cccccc;" parent="1" vertex="1">
                    <mxGeometry x="860" y="420" width="40" height="30" as="geometry"/>
                </mxCell>
                <mxCell id="quality-high" value="高" style="rounded=1;whiteSpace=wrap;html=1;fillColor=#3d3d55;strokeColor=#4d4d66;fontSize=12;fontColor=#cccccc;" parent="1" vertex="1">
                    <mxGeometry x="905" y="420" width="40" height="30" as="geometry"/>
                </mxCell>
                <mxCell id="quality-max" value="最高" style="rounded=1;whiteSpace=wrap;html=1;fillColor=#3d3d55;strokeColor=#4d4d66;fontSize=12;fontColor=#cccccc;" parent="1" vertex="1">
                    <mxGeometry x="950" y="420" width="40" height="30" as="geometry"/>
                </mxCell>
                <!-- 通知設定セクション -->
                <mxCell id="notification-section" value="" style="rounded=1;whiteSpace=wrap;html=1;fillColor=#2a2a3e;strokeColor=#3d3d55;" parent="1" vertex="1">
                    <mxGeometry x="200" y="490" width="800" height="140" as="geometry"/>
                </mxCell>
                <mxCell id="notification-title" value="🔔 通知設定" style="text;html=1;strokeColor=none;fillColor=none;align=left;verticalAlign=middle;whiteSpace=wrap;rounded=0;fontSize=20;fontColor=#87ceeb;fontStyle=1;" parent="1" vertex="1">
                    <mxGeometry x="220" y="500" width="200" height="30" as="geometry"/>
                </mxCell>
                <!-- チャレンジ通知 -->
                <mxCell id="challenge-label" value="チャレンジ通知" style="text;html=1;strokeColor=none;fillColor=none;align=left;verticalAlign=middle;whiteSpace=wrap;rounded=0;fontSize=14;fontColor=#cccccc;" parent="1" vertex="1">
                    <mxGeometry x="240" y="540" width="120" height="25" as="geometry"/>
                </mxCell>
                <mxCell id="challenge-toggle-bg" value="" style="rounded=1;whiteSpace=wrap;html=1;fillColor=#3498db;strokeColor=#2980b9;arcSize=50;" parent="1" vertex="1">
                    <mxGeometry x="370" y="543" width="60" height="30" as="geometry"/>
                </mxCell>
                <mxCell id="challenge-toggle-handle" value="" style="ellipse;whiteSpace=wrap;html=1;fillColor=#ffffff;strokeColor=#cccccc;" parent="1" vertex="1">
                    <mxGeometry x="398" y="546" width="24" height="24" as="geometry"/>
                </mxCell>
                <mxCell id="challenge-status" value="ON" style="text;html=1;strokeColor=none;fillColor=none;align=left;verticalAlign=middle;whiteSpace=wrap;rounded=0;fontSize=14;fontColor=#3498db;" parent="1" vertex="1">
                    <mxGeometry x="440" y="540" width="50" height="25" as="geometry"/>
                </mxCell>
                <!-- 実績通知 -->
                <mxCell id="achievement-label" value="実績通知" style="text;html=1;strokeColor=none;fillColor=none;align=left;verticalAlign=middle;whiteSpace=wrap;rounded=0;fontSize=14;fontColor=#cccccc;" parent="1" vertex="1">
                    <mxGeometry x="540" y="540" width="120" height="25" as="geometry"/>
                </mxCell>
                <mxCell id="achievement-toggle-bg" value="" style="rounded=1;whiteSpace=wrap;html=1;fillColor=#3498db;strokeColor=#2980b9;arcSize=50;" parent="1" vertex="1">
                    <mxGeometry x="670" y="543" width="60" height="30" as="geometry"/>
                </mxCell>
                <mxCell id="achievement-toggle-handle" value="" style="ellipse;whiteSpace=wrap;html=1;fillColor=#ffffff;strokeColor=#cccccc;" parent="1" vertex="1">
                    <mxGeometry x="698" y="546" width="24" height="24" as="geometry"/>
                </mxCell>
                <mxCell id="achievement-status" value="ON" style="text;html=1;strokeColor=none;fillColor=none;align=left;verticalAlign=middle;whiteSpace=wrap;rounded=0;fontSize=14;fontColor=#3498db;" parent="1" vertex="1">
                    <mxGeometry x="740" y="540" width="50" height="25" as="geometry"/>
                </mxCell>
                <!-- システム通知 -->
                <mxCell id="system-label" value="システム通知" style="text;html=1;strokeColor=none;fillColor=none;align=left;verticalAlign=middle;whiteSpace=wrap;rounded=0;fontSize=14;fontColor=#cccccc;" parent="1" vertex="1">
                    <mxGeometry x="240" y="580" width="120" height="25" as="geometry"/>
                </mxCell>
                <mxCell id="system-toggle-bg" value="" style="rounded=1;whiteSpace=wrap;html=1;fillColor=#3d3d55;strokeColor=#4d4d66;arcSize=50;" parent="1" vertex="1">
                    <mxGeometry x="370" y="583" width="60" height="30" as="geometry"/>
                </mxCell>
                <mxCell id="system-toggle-handle" value="" style="ellipse;whiteSpace=wrap;html=1;fillColor=#ffffff;strokeColor=#cccccc;" parent="1" vertex="1">
                    <mxGeometry x="374" y="586" width="24" height="24" as="geometry"/>
                </mxCell>
                <mxCell id="system-status" value="OFF" style="text;html=1;strokeColor=none;fillColor=none;align=left;verticalAlign=middle;whiteSpace=wrap;rounded=0;fontSize=14;fontColor=#888888;" parent="1" vertex="1">
                    <mxGeometry x="440" y="580" width="50" height="25" as="geometry"/>
                </mxCell>
                <!-- 通知説明 -->
                <mxCell id="notification-desc" value="※通知設定はアプリ内での通知表示のみに影響します" style="text;html=1;strokeColor=none;fillColor=none;align=right;verticalAlign=middle;whiteSpace=wrap;rounded=0;fontSize=12;fontColor=#666666;fontStyle=2;" parent="1" vertex="1">
                    <mxGeometry x="600" y="600" width="380" height="20" as="geometry"/>
                </mxCell>
                <!-- 操作ボタンエリア -->
                <mxCell id="button-area" value="" style="rounded=0;whiteSpace=wrap;html=1;fillColor=none;strokeColor=none;" parent="1" vertex="1">
                    <mxGeometry x="200" y="650" width="800" height="60" as="geometry"/>
                </mxCell>
                <!-- 設定保存ボタン -->
                <mxCell id="save-btn" value="設定を保存" style="rounded=1;whiteSpace=wrap;html=1;fillColor=#27ae60;strokeColor=#229954;fontSize=18;fontColor=#ffffff;fontStyle=1;shadow=1;arcSize=50;" parent="1" vertex="1">
                    <mxGeometry x="350" y="660" width="150" height="45" as="geometry"/>
                </mxCell>
                <!-- 設定リセットボタン -->
                <mxCell id="reset-btn" value="初期値に戻す" style="rounded=1;whiteSpace=wrap;html=1;fillColor=#5c5c7e;strokeColor=#4c4c6e;fontSize=16;fontColor=#ffffff;" parent="1" vertex="1">
                    <mxGeometry x="530" y="665" width="120" height="35" as="geometry"/>
                </mxCell>
                <!-- メニューに戻るボタン -->
                <mxCell id="menu-btn" value="メニューに戻る" style="rounded=1;whiteSpace=wrap;html=1;fillColor=#3d3d55;strokeColor=#2d2d44;fontSize=16;fontColor=#ffffff;" parent="1" vertex="1">
                    <mxGeometry x="680" y="665" width="140" height="35" as="geometry"/>
                </mxCell>
                <!-- 保存確認メッセージ（初期非表示） -->
                <mxCell id="save-message" value="✓ 設定を保存しました" style="rounded=1;whiteSpace=wrap;html=1;fillColor=#27ae60;strokeColor=none;fontSize=14;fontColor=#ffffff;visible=0;" parent="1" vertex="1">
                    <mxGeometry x="450" y="730" width="300" height="30" as="geometry"/>
                </mxCell>
                <!-- 装飾的な要素 -->
                <mxCell id="decor-line-1" value="" style="rounded=0;whiteSpace=wrap;html=1;fillColor=#3498db;strokeColor=none;opacity=20;" parent="1" vertex="1">
                    <mxGeometry x="100" y="400" width="3" height="100" as="geometry"/>
                </mxCell>
                <mxCell id="decor-line-2" value="" style="rounded=0;whiteSpace=wrap;html=1;fillColor=#e74c3c;strokeColor=none;opacity=20;" parent="1" vertex="1">
                    <mxGeometry x="1100" y="250" width="3" height="150" as="geometry"/>
                </mxCell>
            </root>
        </mxGraphModel>
    </diagram>
</mxfile>